<?xml version="1.0" encoding="UTF-8"?>
<svg xmlns="http://www.w3.org/2000/svg" xmlns:xlink="http://www.w3.org/1999/xlink" width="149px" height="150px" viewBox="0 0 149 140" version="1.1">
<g id="surface1">
<path style=" stroke:none;fill-rule:nonzero;fill:rgb(90.196078%,0%,0%);fill-opacity:1;" d="M 49.34375 6.816406 C 66.496094 0 86.472656 0.472656 103.167969 8.386719 C 98.410156 7.667969 93.570312 8.210938 88.863281 9.003906 C 76.074219 11.410156 63.921875 17.410156 54.421875 26.320312 C 45.3125 35.246094 38.933594 47.089844 37.128906 59.761719 C 35.9375 68.738281 37.042969 78.15625 41.082031 86.324219 C 45.246094 94.898438 52.578125 101.929688 61.410156 105.5625 C 69.921875 109.152344 79.796875 109.113281 88.421875 105.90625 C 101.359375 101.171875 110.652344 88.390625 111.714844 74.738281 C 112.386719 65.785156 110.203125 56.265625 104.171875 49.402344 C 98.414062 42.683594 89.992188 38.980469 81.566406 36.875 C 81.113281 28.589844 85.03125 20.402344 91.238281 15.015625 C 94.6875 11.914062 98.964844 9.941406 103.390625 8.675781 L 103.726562 8.558594 C 116.394531 14.617188 127.160156 24.605469 134.019531 36.867188 C 139.894531 47.304688 142.957031 59.335938 142.65625 71.320312 C 142.597656 86.816406 136.785156 102.15625 126.828125 114.007812 C 117.410156 125.304688 104.238281 133.433594 89.882812 136.6875 C 75.488281 140 60.003906 138.570312 46.53125 132.472656 C 33.347656 126.601562 22.183594 116.398438 15.078125 103.847656 C 9.167969 93.417969 6.042969 81.394531 6.300781 69.394531 C 6.328125 54.449219 11.652344 39.613281 20.949219 27.925781 C 28.375 18.59375 38.226562 11.171875 49.34375 6.816406 Z M 49.34375 6.816406 "/>
<path style=" stroke:none;fill-rule:nonzero;fill:rgb(100%,100%,100%);fill-opacity:1;" d="M 88.863281 9.003906 C 93.570312 8.210938 98.410156 7.667969 103.167969 8.386719 L 103.847656 8.503906 L 103.390625 8.675781 C 98.964844 9.941406 94.6875 11.914062 91.238281 15.015625 C 85.03125 20.402344 81.113281 28.589844 81.566406 36.875 C 89.992188 38.980469 98.414062 42.683594 104.171875 49.402344 C 110.203125 56.265625 112.386719 65.785156 111.714844 74.738281 C 110.652344 88.390625 101.359375 101.171875 88.421875 105.90625 C 79.796875 109.113281 69.921875 109.152344 61.410156 105.5625 C 52.574219 101.929688 45.246094 94.898438 41.082031 86.324219 C 37.042969 78.15625 35.9375 68.738281 37.128906 59.761719 C 38.933594 47.089844 45.3125 35.246094 54.421875 26.320312 C 63.921875 17.410156 76.074219 11.410156 88.863281 9.003906 Z M 88.863281 9.003906 "/>
</g>
</svg>
